<!-- <svg height="57" viewBox="0 0 248 57" width="248" xmlns="http://www.w3.org/2000/svg"><g fill="none" transform="translate(.299718 .833139)"><path d="m4.83770845 13.0759818v32.0624695c0 2.0646287-.9108656 3.0564601-3.62322097 3.0564601-.3845877 0-.72869249-.0202414-1.21448748-.0607243v7.4893394c.67302848.0708451 1.16008856.0642034 1.62390259.0749962l.19782863.0059696c7.93465152.2428975 12.91405018-2.6718724 12.91405018-10.3636264v-32.2648841zm4.93891575-3.62322093c2.8135627 0 5.0806059-2.12535309 5.0806059-4.73650116 0-2.61114808-2.2670432-4.71625971-5.0806059-4.71625971-2.7933212 0-5.08060595 2.10511163-5.08060595 4.71625971 0 2.61114807 2.28728475 4.73650116 5.08060595 4.73650116zm25.74715 35.30110273c9.7766242 0 15.7073713-6.4570251 15.7073713-16.0312347 0-9.5944511-5.9307471-16.0514762-15.7073713-16.0514762s-15.7073714 6.4570251-15.7073714 16.0514762c0 9.5742096 5.9307472 16.0312347 15.7073714 16.0312347zm.0607243-7.469098c-3.6637039 0-5.6878497-3.4815308-5.6878497-8.6228611 0-5.1615718 2.0241458-8.663344 5.6878497-8.663344 3.5422552 0 5.566401 3.5017722 5.566401 8.663344 0 5.1413303-2.0241458 8.6228611-5.566401 8.6228611zm30.6253596-10.8494215c.0202415-3.5422551 2.1253531-5.6473668 5.2627791-5.6473668 3.0984612 0 4.926948 1.9434457 4.9976748 5.2487464l.0019653 18.1301376h9.898215v-19.8163874c.0200994-7.0440273-4.2710897-11.6793212-10.8090806-11.6793212-4.6555353 0-7.9346515 2.2872847-9.3313121 6.1129203h-.3441048v-16.07171763h-9.5742096v41.45450593h9.8980729zm36.2120029 0v17.7315172h-9.898073v-31.0908795h9.412278v5.7080912h.344105c1.376419-3.7851526 4.85795-6.1129203 9.452761-6.1129203 6.537991 0 10.808938 4.6757768 10.788839 11.6793212v19.8163874h-9.898215v-17.8732074c.020241-3.4410479-1.841973-5.5056766-4.979399-5.5056766s-5.202055 2.1051117-5.222296 5.6473668z" fill="#1a202c"/><path d="m134.241467 44.7538636c-2.8419 0-5.183508-2.2320762-5.26129-5.0452619l-.001489-.2175172c-.040483-2.874287 2.348009-5.2020547 5.262779-5.2020547 2.77308 0 5.222297 2.3277677 5.262779 5.2020547-.040482 2.9147699-2.489699 5.2627791-5.262779 5.2627791z" fill="#3182ce"/><path d="m157.417953 44.6121734c4.696019 0 7.48934-2.6111481 8.74431-5.4854351h.303622v5.040123h9.796866v-41.45450593h-9.898073v15.68712993h-.202415c-1.174004-2.8540456-3.88636-5.7283326-8.784793-5.7283326-6.497508 0-12.387772 4.9996401-12.387772 15.9705103 0 10.5862825 5.566401 15.9705104 12.428255 15.9705104zm3.441048-7.7119955c-3.663704 0-5.708091-3.2588748-5.708091-8.2787563 0-4.9996402 2.024146-8.218032 5.708091-8.218032 3.623221 0 5.728333 3.137426 5.728333 8.218032 0 5.040123-2.125353 8.2787563-5.728333 8.2787563zm36.191762 7.8536857c9.776624 0 15.707371-6.4570251 15.707371-16.0312347 0-9.5944511-5.930747-16.0514762-15.707371-16.0514762s-15.707372 6.4570251-15.707372 16.0514762c0 9.5742096 5.930748 16.0312347 15.707372 16.0312347zm.060724-7.469098c-3.663704 0-5.68785-3.4815308-5.68785-8.6228611 0-5.1615718 2.024146-8.663344 5.68785-8.663344 3.542255 0 5.566401 3.5017722 5.566401 8.663344 0 5.1413303-2.024146 8.6228611-5.566401 8.6228611zm35.260654 7.469098c8.157307 0 13.521294-3.9470843 14.654815-10.0600046l-9.088414-.263139c-.769176 2.0646287-2.793322 3.1779089-5.384228 3.1779089-3.805394 0-6.153403-2.5301822-6.153403-6.3355763v-.263139h20.727252v-2.4694579c0-10.2421777-6.234369-15.869303-15.059644-15.869303-9.392037 0-15.423991 6.4367836-15.423991 16.0717176 0 9.9587973 5.950988 16.0109933 15.727613 16.0109933zm-5.97123-19.4925241c.14169-3.096943 2.590906-5.4449521 5.870022-5.4449521 3.258875 0 5.606884 2.2670432 5.647367 5.4449521z" fill="#1a202c"/></g></svg> -->
<svg version="1.0" xmlns="http://www.w3.org/2000/svg"
 width="200.000000pt" height="200.000000pt" viewBox="0 0 200.000000 200.000000"
 preserveAspectRatio="xMidYMid meet">

<g transform="translate(0.000000,200.000000) scale(0.100000,-0.100000)"
fill="#000000" stroke="none">
<path d="M1460 1431 c0 -17 5 -33 10 -36 6 -4 10 8 10 29 0 20 -4 36 -10 36
-5 0 -10 -13 -10 -29z"/>
<path d="M1370 1413 c0 -12 38 -48 45 -41 3 2 -6 15 -20 28 -14 13 -25 19 -25
13z"/>
<path d="M1540 1395 c-13 -14 -19 -25 -13 -25 12 0 48 38 41 45 -2 3 -15 -6
-28 -20z"/>
<path d="M1423 1344 c-15 -24 -15 -29 -2 -53 11 -20 22 -26 49 -26 27 0 38 6
49 26 13 24 13 29 -2 53 -12 18 -26 26 -47 26 -21 0 -35 -8 -47 -26z m82 -13
c9 -31 -5 -52 -33 -49 -33 4 -50 31 -33 52 18 22 58 20 66 -3z"/>
<path d="M1330 1320 c0 -5 14 -10 30 -10 17 0 30 5 30 10 0 6 -13 10 -30 10
-16 0 -30 -4 -30 -10z"/>
<path d="M1550 1320 c0 -5 14 -10 30 -10 17 0 30 5 30 10 0 6 -13 10 -30 10
-16 0 -30 -4 -30 -10z"/>
<path d="M1104 1244 c5 -23 -4 -59 -40 -150 -25 -65 -55 -143 -66 -171 l-19
-53 -110 0 -109 0 0 35 0 35 65 0 c45 0 65 4 65 13 -1 20 -126 291 -136 294
-10 3 -144 -274 -144 -296 0 -7 26 -11 65 -11 l65 0 0 -35 0 -35 -65 0 c-37 0
-65 -4 -65 -10 0 -6 135 -10 385 -10 250 0 385 4 385 10 0 6 -24 10 -54 10
l-53 0 -68 175 c-38 99 -65 184 -62 195 3 11 1 23 -4 26 -5 3 -9 0 -9 -7 0 -8
-5 -8 -16 2 -15 12 -16 10 -10 -17z m-383 -107 c-10 -9 -11 -8 -5 6 3 10 9 15
12 12 3 -3 0 -11 -7 -18z m389 -59 c-4 -55 -14 -104 -30 -145 -23 -58 -27 -63
-55 -63 l-30 0 25 20 c14 11 21 20 15 20 -5 0 -3 5 5 10 12 8 13 12 2 19 -11
6 -7 24 17 87 16 43 35 91 40 107 6 15 12 27 13 27 2 0 1 -37 -2 -82z m79 -66
c28 -74 51 -136 51 -138 0 -2 -11 -4 -24 -4 -20 0 -28 10 -51 68 -23 58 -49
228 -32 212 3 -3 28 -65 56 -138z m-509 23 c-18 -41 -36 -75 -41 -75 -4 0 9
36 29 80 20 43 38 77 40 75 3 -3 -10 -38 -28 -80z"/>
<path d="M1385 1240 c-27 -30 -12 -34 15 -5 13 14 19 25 13 25 -5 0 -18 -9
-28 -20z"/>
<path d="M1540 1235 c13 -14 26 -23 28 -20 7 7 -29 45 -41 45 -6 0 0 -11 13
-25z"/>
<path d="M1467 1233 c-11 -10 -8 -63 3 -63 6 0 10 16 10 35 0 36 -2 40 -13 28z"/>
<path d="M906 803 c-3 -3 -6 -15 -6 -25 0 -10 -7 -18 -15 -18 -8 0 -15 -4 -15
-10 0 -5 6 -10 14 -10 9 0 16 -22 22 -72 l9 -73 3 73 c2 55 6 72 17 72 8 0 15
5 15 10 0 6 -6 10 -14 10 -9 0 -12 7 -9 19 5 19 -9 36 -21 24z"/>
<path d="M265 788 c-5 -18 -35 -168 -35 -179 0 -17 19 -9 25 11 4 13 15 20 32
20 16 0 27 -7 30 -20 3 -11 12 -20 20 -20 10 0 13 6 9 15 -3 9 -14 54 -23 100
-14 69 -21 85 -36 85 -10 0 -19 -6 -22 -12z m38 -90 c5 -35 4 -38 -19 -38 -19
0 -24 4 -20 18 3 9 8 35 12 57 8 43 16 32 27 -37z"/>
<path d="M460 771 c0 -28 -1 -29 -29 -18 -25 9 -33 8 -50 -8 -47 -42 -12 -157
42 -140 12 4 30 7 40 6 15 0 17 11 17 95 0 56 -4 94 -10 94 -5 0 -10 -13 -10
-29z m-14 -56 c13 -20 15 -33 8 -58 -18 -60 -74 -43 -74 22 0 61 37 81 66 36z"/>
<path d="M1556 714 c-10 -47 -20 -92 -23 -100 -3 -8 1 -14 11 -14 9 0 16 8 16
20 0 16 7 20 30 20 19 0 30 -5 30 -14 0 -16 18 -31 27 -23 2 3 -5 49 -17 101
-18 76 -26 96 -40 96 -14 0 -21 -18 -34 -86z m53 -31 c1 -17 -5 -23 -20 -23
-19 0 -20 4 -14 43 4 23 10 47 13 52 7 10 19 -32 21 -72z"/>
<path d="M1670 700 c0 -60 4 -100 10 -100 6 0 10 18 10 40 0 38 2 40 30 40 17
0 30 5 30 10 0 6 -13 10 -30 10 -28 0 -30 2 -30 40 l0 40 40 0 c22 0 40 5 40
10 0 6 -22 10 -50 10 l-50 0 0 -100z"/>
<path d="M1384 759 c-50 -18 -43 -71 11 -89 37 -12 46 -36 19 -47 -10 -4 -22
1 -29 10 -18 25 -39 22 -25 -2 23 -44 90 -32 90 15 0 19 -8 28 -32 39 -41 17
-48 23 -41 41 8 22 50 17 56 -6 7 -25 27 -26 27 -1 0 32 -41 54 -76 40z"/>
<path d="M636 738 c-34 -47 -8 -138 38 -138 19 0 63 37 54 45 -4 4 -14 0 -23
-9 -9 -9 -20 -16 -25 -16 -16 0 -40 31 -40 51 0 16 7 19 50 19 54 0 61 10 34
48 -10 14 -26 22 -44 22 -18 0 -34 -8 -44 -22z m73 -11 c14 -18 4 -27 -29 -27
-15 0 -30 3 -33 7 -10 10 13 33 33 33 10 0 23 -6 29 -13z"/>
<path d="M1237 742 c-24 -27 -22 -97 3 -122 11 -11 26 -20 34 -20 19 0 63 37
54 46 -5 4 -17 -1 -27 -10 -26 -23 -61 -6 -61 29 0 23 4 25 50 25 54 0 61 10
34 48 -19 27 -64 29 -87 4z m71 -24 c3 -15 -4 -18 -32 -18 -38 0 -44 8 -24 28
17 17 52 11 56 -10z"/>
<path d="M500 743 c0 -4 8 -37 18 -73 22 -77 40 -83 63 -20 27 75 31 100 16
100 -9 0 -19 -22 -27 -60 -7 -33 -15 -58 -17 -56 -3 2 -10 28 -16 57 -7 29
-18 54 -25 57 -6 2 -12 0 -12 -5z"/>
<path d="M760 682 c0 -38 3 -72 7 -76 4 -4 16 21 28 56 11 35 25 62 30 61 6
-1 14 -29 18 -63 5 -34 13 -58 18 -54 9 5 6 61 -7 122 -6 28 -28 29 -47 2
l-14 -21 -6 21 c-3 11 -10 20 -16 20 -7 0 -11 -26 -11 -68z"/>
<path d="M967 717 c-7 -46 5 -98 26 -111 15 -9 22 -6 38 13 19 23 19 23 19 2
0 -12 5 -21 10 -21 6 0 10 32 10 75 0 82 -13 100 -24 33 -8 -49 -32 -92 -46
-83 -6 4 -10 33 -10 66 0 64 -14 80 -23 26z"/>
<path d="M1100 721 c0 -50 12 -121 21 -121 5 0 9 18 9 40 0 46 18 90 37 90 12
0 17 -12 14 -37 -1 -6 3 -14 9 -18 6 -4 10 8 10 30 0 40 -21 55 -51 36 -12 -7
-19 -7 -19 -1 0 5 -7 10 -15 10 -10 0 -15 -10 -15 -29z"/>
</g>
</svg>
